<svg version="1" xmlns="http://www.w3.org/2000/svg" width="451.994" height="125.593" viewBox="0 0 451.994 125.593"><path d="M69.015 125.557c-1.183 0-2.144-.028-3.103.005-3.31.114-6.594-.08-9.84-.788-3.218-.702-6.34-1.68-9.353-3.024-4.79-2.135-9.09-5.06-13.43-7.943-2.8-1.857-5.78-3.433-8.51-5.375-2.06-1.465-3.95-3.212-5.73-5.01-2.58-2.592-4.78-5.52-6.82-8.548-3-4.44-5.76-9.032-7.82-13.982-1.65-3.98-3.06-8.052-3.85-12.337-.38-2.02-.59-4.005-.56-6.032.03-3.236 0-6.478.2-9.705.2-3.338 1.15-6.55 2.14-9.736 1.21-3.887 2.84-7.607 4.81-11.152 1.52-2.732 3.34-5.294 4.97-7.965.46-.763.92-1.613 1.07-2.476.42-2.53 1.95-4.37 3.68-5.99 4.07-3.82 8.59-7 13.64-9.45 4.77-2.32 9.74-3.86 14.99-4.53 2.21-.28 4.44-.41 6.66-.62 3.02-.29 6.02-.59 9.03-.88.31-.03.64-.02.96-.02 3.56.01 7.12.04 10.68 0 3.36-.04 6.61.57 9.87 1.33 4.16.97 8.13 2.46 11.96 4.32 3.16 1.53 6.05 3.52 8.73 5.77 2.13 1.79 4.21 3.65 6.2 5.59 4.84 4.7 9.29 9.72 12.03 16.01 1.34 3.06 2.29 6.24 2.99 9.51.98 4.64 1.49 9.31 1.37 14.06-.07 2.6.01 5.2-.02 7.8-.05 2.98-.55 5.9-1.27 8.79-.5 2.04-.87 4.11-1.52 6.1-.8 2.44-1.75 4.85-2.8 7.19-.92 2.04-2.13 3.95-3.12 5.97-1.38 2.82-3.27 5.3-5 7.89-1.04 1.54-1.97 3.14-3.02 4.67-.48.69-1.23 1.2-1.67 1.91-1.51 2.42-3.45 4.48-5.62 6.25-1.82 1.48-3.57 3.05-5.83 4.01-2.12.9-4.09 2.3-5.92 3.74-2.65 2.08-5.7 3.07-8.85 3.89-4.15 1.08-8.39.68-12.38.75zm47.278-78.046c-.34.14-.525.2-.703.29-1.96.9-3.908 1.84-5.885 2.7-1.57.69-1.79.47-2.455-1.09-.572-1.34-1.29-2.65-2.178-3.8-.743-.96-1.803-1.68-2.755-2.47-2.507-2.08-4.367-4.65-5.746-7.57-.25-.53-.35-1.13-.54-1.7-.27-.82-.42-1.72-.85-2.45-.77-1.29-1.68-2.52-2.62-3.71-.72-.92-1.36-1.83-1.67-2.99-.25-.91-.71-1.77-1.1-2.65-.38-.86-1.04-1.25-2.01-1.16-1.35.14-2.58-.18-3.76-.9-.54-.33-1.27-.43-1.93-.51-1.62-.18-3.25-.32-4.89-.39-.81-.03-1.74-.1-2.43.24-.86.42-1.67 1.13-2.25 1.91-.68.92-1.5 1.21-2.97.68-.89-.32-1.71-.85-2.6-1.22-1.37-.56-2.5-1.37-3.18-2.74-.35-.7-.94-1.19-1.78-1.25-1.35-.1-2.4-.81-3.36-1.68-.62-.55-1.3-.84-2.16-.82-2.68.04-5.36.08-8.04-.01-1.58-.06-2.97.33-4.34 1.06-3.34 1.77-6.62 3.67-10.22 4.92-.47.17-.9.51-1.31.82-3.76 2.87-7.28 5.96-10.14 9.79-1.39 1.86-2.16 3.97-3.1 6.03-.12.27-.12.63-.12.94 0 4.96-.01 9.91.01 14.87.01.4.17.87.41 1.19 1.2 1.55 2.47 3.04 3.68 4.58 2.52 3.2 5.52 5.19 9.84 4.1 1.17-.29 2.4-.4 3.48.29 1.3.82 2.4.51 3.48-.39.18-.15.39-.27.59-.41 1.83-1.2 3.93-1.08 5.76-.46 1.38.47 2.66.73 4.05.63 1.41-.09 3.62 1.31 3.71 2.71.15 2.37 1.17 4.81-.34 7.11-.08.13-.08.31-.14.46-.34.9-.05 1.47.68 2.16 2.93 2.78 5.95 5.56 6.02 10.06.04 2.78.54 5.64-.67 8.28-.97 2.12-.77 3.94.59 5.79.61.82 1.07 1.79 1.39 2.76.87 2.65 1.62 5.35 2.45 8.01.13.4.38.81.68 1.11 1.95 1.94 2.29 4.5 2.66 7.02.14.94.53 1.23 1.38 1.25.87.02 1.77-.02 2.62.16 3.57.76 7.16.53 10.46-.76 2.2-.86 4.34-2.382 5.93-4.13 1.78-1.952 2.7-4.57 2.91-7.33.04-.59.36-1.2.66-1.73.86-1.47 1.86-2.87 2.64-4.37.69-1.31 1.28-2.6 2.54-3.543 1.26-.94 2.37-2.03 3.17-3.51 1.85-3.4 2.78-6.99 2.92-10.82.1-2.5-.34-5.04.7-7.46.38-.88.68-1.8.9-2.73.61-2.54 2.06-4.53 3.81-6.37 1.77-1.85 3.49-3.75 5.19-5.66 3.34-3.76 4.12-8.126 3-13.045z" fill="#4B96A3"/><path d="M264.557 52.536l.496-2.314h8.23c-.648 3.106-1.278 6.186-1.933 9.26-.75 3.52-1.53 7.035-2.274 10.557-.098.46-.078.95-.08 1.43-.005 1.54.573 2.3 1.854 2.44 1.522.17 2.642-.54 2.936-1.93 1.067-5.03 2.116-10.07 3.168-15.1.413-1.98.812-3.96 1.23-5.93.057-.27.19-.51.29-.77h8.108l-.518 2.87c.506-.47.867-.82 1.24-1.15 2.687-2.39 7.105-2.62 9.813-.51 1.283.99 1.832 2.35 1.917 3.93.127 2.36-.277 4.67-.827 6.96-.565 2.35-1.194 4.68-1.7 7.04-.18.84-.162 1.75-.09 2.62.095 1.16 1.202 1.82 2.6 1.64.455-.06.906-.15 1.39-.23-.28 3.18-2.392 5.33-5.647 5.76-3.345.44-6.19-2.11-6.303-5.48-.113-3.4.827-6.6 1.562-9.85.48-2.13 1.04-4.24.87-6.46-.07-.88-.28-1.67-1.19-2.03-.91-.35-1.73-.13-2.45.46-1.57 1.3-2.43 3.04-2.85 4.98-1.24 5.72-2.43 11.46-3.64 17.19-.05.23-.18.44-.28.71h-8.1l.13-1c-1.4.42-2.85 1.01-4.36 1.27-4.24.72-6.35-1.25-6.98-4.84-.8.83-1.52 1.66-2.32 2.39-2.38 2.18-5.17 3.09-8.36 2.39-1.78-.39-3.18-1.43-4.06-3.08-.36-.66-.66-1.35-1-2.05-1.08.87-2.1 1.8-3.23 2.57-3.61 2.46-7.56 3.42-11.88 2.38-2-.48-3.65-1.53-4.64-3.18-1.55.95-2.98 2.02-4.57 2.76-1.74.81-3.64 1.07-5.58.67-2.27-.47-4.03-2.49-4.38-4.78-.43-2.76.26-5.37.8-8.01 1.09-5.31 2.27-10.59 3.42-15.96h8.22c-.56 2.73-1.11 5.46-1.69 8.18-.83 3.91-1.71 7.81-2.51 11.72-.14.65-.1 1.36-.03 2.03.09.94 1.19 1.6 2.4 1.44.54-.07 1.08-.26 1.59-.47.93-.39 1.35-1.05 1.28-2.15-.34-5.2 1.04-9.99 3.7-14.42 2.28-3.79 5.58-6.24 10-6.81 2.46-.31 4.91-.06 6.89 1.87 1.28 1.24 1.22 5.05.38 6.21-1.01 1.39-2.84 1.65-4.18.7.16-1.37.42-2.66.41-3.94 0-.57-.41-1.45-.87-1.64-.54-.23-1.49-.08-1.97.29-.84.64-1.56 1.5-2.12 2.4-2.09 3.35-3.2 7.06-3.64 10.97-.14 1.22-.22 2.46-.23 3.69-.04 3.21 1.92 4.24 4.64 3.98 3.63-.35 4.67-1.1 7.31-3.46.01-3.07.44-6.13 1.48-9.08 1.34-3.83 3.28-7.27 6.63-9.71 2.67-1.95 5.68-2.56 8.93-1.88 1.16.25 1.93 1.01 2.52 2.36zm-2.735.99c-1.726-.073-2.776.655-3.59 1.668-3.64 4.532-4.875 9.796-4.558 15.497.16 2.88 2.41 3.65 4.752 2.19 1.508-.94 2.256-2.44 2.668-4.09.43-1.72.77-3.47 1.135-5.21.51-2.48 1.08-4.95 1.51-7.44.29-1.68-.56-2.58-1.92-2.59z" fill="#DC7B3C"/><path d="M386.642 65.754c-.572 1.665-1.046 3.372-1.735 4.987-1.45 3.41-3.635 6.18-7.22 7.55-2.192.84-4.48 1.18-6.773.63-.954-.23-1.8-.9-2.732-1.4-.868 4.05-1.79 8.23-2.643 12.42-.17.84-.51 1.17-1.36 1.34-2.44.48-4.85 1.1-7.27 1.66-.06-.06-.12-.11-.18-.15l3.12-14.86c-.84.33-1.48.62-2.14.84-2.28.77-4.48.43-6.6-.54-2.47-1.13-3.24-4.25-2.8-6.7.65-3.57 1.53-7.11 2.18-10.69.24-1.33.26-2.76.08-4.11-.18-1.31-1.44-1.9-2.64-1.3-.75.37-1.45.97-1.99 1.63-1.48 1.82-1.83 4.1-2.29 6.31-1.08 5.1-2.15 10.2-3.22 15.35h-8.26c.9-4.27 1.78-8.51 2.68-12.75.5-2.36 1.06-4.7 1.53-7.07.14-.69.11-1.44.03-2.15-.15-1.34-1.33-2-2.68-1.33-.81.41-1.53 1.12-2.1 1.85-1.42 1.81-1.69 4.07-2.15 6.24-1.08 5.06-2.14 10.13-3.21 15.23h-8.26l6.04-28.46h8.21c-.14.83-.29 1.64-.47 2.7 1.69-1.52 3.34-2.52 5.39-2.87 3.3-.55 6.53.64 7.24 4.25.01.07.09.12.2.23.67-.74 1.29-1.5 1.99-2.18 2.74-2.67 7.11-3.13 10.08-1.1 1.27.87 1.92 2.1 2.05 3.6.31 3.31-.52 6.47-1.27 9.64-.44 1.85-.9 3.69-1.29 5.55-.12.54-.11 1.12-.05 1.67.14 1.33 1.2 2.09 2.53 1.88 1.87-.29 2.16-.52 2.56-2.38 1.35-6.26 2.67-12.52 4.01-18.79.31-1.43.63-2.85.96-4.3h8.2l-.82 4.07c.38-.23.6-.35.81-.49 2.44-1.59 5.1-2.22 7.95-1.48 2.58.68 4.07 2.62 4.41 5.11.33 2.46.13 5 .14 7.5 0 .67-.05 1.34-.08 2l.02-.03-.26.99.01-.02zm-7.177-6.89c-.086-.694-.136-1.573-.316-2.425-.32-1.48-1.45-2.47-2.69-2.44-1.58.03-3.65 1.73-3.99 3.29-1.05 4.86-2.09 9.72-3.12 14.58-.28 1.32.07 1.91 1.41 2.19.56.12 1.19.08 1.76-.04 1.72-.36 2.79-1.6 3.72-2.97 2.44-3.65 2.8-7.84 3.2-12.22zm7.402 5.956c.56-1.63 1.036-3.298 1.696-4.888 1.318-3.176 3.19-5.993 6.048-7.99 2.67-1.862 5.66-2.445 8.85-1.76 1.15.248 1.9 1.053 2.47 2.293l.51-2.263h8.23c-.9 4.28-1.79 8.52-2.68 12.764-.53 2.553-1.12 5.098-1.54 7.67-.18 1.13-.38 2.447 1.11 3.067 1.25.517 2.39.202 3.67-1.076 0-1.48-.11-3.005.02-4.51.5-5.69 2.25-10.928 6.49-14.927 3.25-3.062 7.19-4.32 11.67-3.036 2.31.66 3.42 2.152 3.44 4.544.01.598.06 1.22-.07 1.792-.51 2.18-2.44 3.43-4.73 2.048.16-1.333.42-2.612.42-3.89 0-.58-.36-1.373-.82-1.692-.62-.432-1.53-.3-2.08.312-.89.998-1.82 2.014-2.49 3.164-1.82 3.118-2.78 6.544-3.18 10.12-.14 1.225-.21 2.462-.24 3.694-.07 3.25 1.92 4.216 4.7 4.067 2.9-.156 5.23-1.49 7.25-3.45.35-.335.63-.84.73-1.31 1.19-5.486 2.34-10.98 3.5-16.473.03-.115.07-.227.13-.444l-1.9-.147.53-2.3h1.81l1.77-7.88 8.44-1.12-1.89 8.96h3.3l-.37 2.36h-3.43c-.52 2.39-1.04 4.72-1.54 7.06-.76 3.55-1.52 7.11-2.25 10.67-.11.5-.16 1.02-.15 1.53.02 1.32.59 1.87 1.91 1.88h1.31c-.34 2.96-2.79 5.45-5.66 5.45-2.85-.01-4.88-.69-5.95-5.23-.67.54-1.3 1.05-1.92 1.57-2.77 2.35-6.01 3.55-9.6 3.66-2.37.07-4.69-.39-6.6-1.96-.61-.5-1.09-1.14-1.69-1.78-.48.45-.96.97-1.5 1.41-2.45 2.02-5.26 2.78-8.35 2.04-2.07-.5-3.12-2.06-3.51-4.1-.03-.15-.05-.31-.08-.47-.01-.03-.05-.06-.13-.14-.79.81-1.53 1.68-2.37 2.43-2.4 2.14-5.2 3.02-8.38 2.29-2.64-.61-4.83-3.19-5.1-6.25-.19-2.13 0-4.28.01-6.42 0-.16-.03-.31-.04-.46l-.02.02.26-.98c0-.01-.02.02-.02.02zm7.982 4.398c0 .043-.02.164 0 .282.05.395.14.786.17 1.182.2 2.894 2.42 3.647 4.74 2.206 1.54-.957 2.3-2.48 2.7-4.186.5-2.15.97-4.31 1.42-6.473.43-2.09.88-4.18 1.23-6.28.21-1.31-.51-2.28-1.7-2.42-.97-.12-1.95-.04-2.7.66-.75.7-1.52 1.42-2.1 2.25-2.69 3.79-3.47 8.18-3.79 12.77z" fill="#DA5838"/><path d="M153.85 56.178c-2.497.016-4.92.218-6.535 2.642.122.15.23.258.307.384 1.006 1.64.372 3.275-1.5 3.628-.802.15-1.7.132-2.49-.064-1.887-.468-2.746-2.365-2.136-4.37.48-1.577 1.535-2.673 2.882-3.522 3.197-2.014 6.72-2.552 10.408-2.15.816.088 1.28-.032 1.758-.77 2.563-3.962 5.468-7.66 8.923-10.893 2.463-2.305 5.142-4.287 8.554-4.933 1.5-.284 4.85-.327 6.39.698l-8.93 41.84h-8.25c1.45-6.854 2.89-13.676 4.36-20.646-1.29-.462-2.49-.972-3.74-1.31-1.25-.34-2.55-.507-4.09-.8-1.58 4.3-3.3 8.518-4.66 12.85-1.05 3.35-1.78 6.82-2.37 10.282-.33 1.964-.52 4.05.37 6.005-3.57.6-6.74-.65-7.3-4.22-.27-1.76-.05-3.67.3-5.45 1.3-6.48 4.15-12.38 7.25-18.15.19-.35.33-.72.49-1.08l.05-.07c.01-.02-.01.03-.03.08zm14.3-.806l3.238-15.14c-.084-.036-.168-.07-.252-.107-4.755 3.314-7.287 8.298-9.916 13.228.187.132.274.235.38.264 2.164.585 4.33 1.162 6.55 1.755zm31.228-10.956h-2.53c-.018-.432-.045-.82-.05-1.207-.022-1.64-1.224-2.55-2.796-2.08-1.25.37-2.24 1.14-2.647 2.39-.513 1.57-.87 3.2-1.27 4.8-.14.56-.207 1.14-.328 1.83h4.12l-.463 2.36h-4.17c-.45 2.05-.895 4.04-1.32 6.03-1.407 6.57-2.8 13.15-4.21 19.72-.507 2.36-.96 4.73-1.59 7.05-.717 2.64-2.053 4.96-4.484 6.39-3.228 1.9-7.432 1.96-10.1-.54-2.4-2.25-2.617-6.1-.432-8.59.94-1.07 2.045-1.9 3.362-2.42 1.397-.56 2.794-1.13 4.226-1.58.59-.19.855-.51.968-1.04 1.528-7.28 3.04-14.56 4.585-21.83.84-3.98 1.62-7.99 2.67-11.92.87-3.27 2.67-5.98 6.07-7.16 2.95-1.02 5.84-1.12 8.44 1.03 1.72 1.43 2.32 3.26 2.07 5.42-.05.39-.08.79-.13 1.31zm-24.392 36.09l-.29-.247c-1.165.56-2.4 1.01-3.475 1.71-1.25.81-2.14 1.98-2.4 3.54-.14.83.09 1.47.78 1.96 1.35.95 2.81.56 3.75-1.13 1.01-1.82 1.16-3.88 1.65-5.85z" fill="#DC7B3C"/><path d="M306.667 56.264c-3.49.18-5.914-1.45-6.008-4.91-.11-4.028 1.89-6.907 4.64-9.39 3.18-2.867 6.91-4.815 11.15-5.566 2.13-.378 4.33-.37 6.61-.547l-9.14 42.82h-8.22l8.19-38.44c-5.69 1.52-9.62 8.9-7.24 16.04z" fill="#DA5838"/><path d="M203.103 53.353c.9-.65 1.778-1.335 2.705-1.944 1.29-.85 2.717-1.38 4.28-1.2 1.64.19 2.767 1.11 3.29 2.71.523 1.6.18 3.05-.796 4.37-.987 1.34-2.39 1.52-3.868 1.23-1.042-.21-1.348-1.14-1.592-2.05-.13-.49-.255-.97-.367-1.4-2.466-.35-4.523.98-5.012 3.24-1.352 6.26-2.66 12.53-3.987 18.79-.106.5-.215 1-.333 1.54h-8.247l6.036-28.44h8.244c-.193 1-.38 1.97-.57 2.94l-.015.28.24-.1z" fill="#DC7B3C"/><path d="M333.3 101.523l-1.634-.095 1.526-6.656c-1.413 1.186-3.017.836-4.79.744v6.008l-1.756-.322.31-15.428c1.546-.514 3.21-.635 4.768.03 1.312.557 1.57 1.894 1.64 3.226.048.868.162 1.732.356 2.616l1.446-6.118h1.37l2.86 15.77-1.613.22-.983-4.2h-2.456c-.32 1.295-.675 2.72-1.044 4.205zm-4.867-14.188v6.75c.446 0 .8.002 1.155 0 1.555-.004 1.85-.095 2.065-1.668.196-1.426.032-2.905-.032-4.358 0-.21-.31-.47-.54-.58-.84-.41-1.72-.56-2.64-.15zm8.148 8.137l-.85-4.555-.16.01-.83 4.545h1.85zm-3.05-3.44h-.1v.973h.1v-.973z" fill="#4E98A5"/><path d="M323.15 101.144v-7.967l-.243-.012c-.277.94-.497 1.9-.858 2.807-.17.42-.56.934-.95 1.05-.65.19-.93-.404-1.13-.958-.29-.803-.59-1.6-.89-2.398-.13.014-.25.03-.38.043v6.2c0 1.74-.18 1.86-1.77 1.25V85.8l1.3-.413 2.54 7.376.22.024c.76-2.24 1.52-4.48 2.31-6.775l1.46-.323c.06.15.15.25.15.35.09 4.71.19 9.42.25 14.13.01 1.38-.44 1.62-2.04.96zm-59.343.326h-1.827l-3.164-9.59h-.12l-.55 9.52-1.778.106.465-15.78 1.553-.34 3.38 9.584.267-.082.368-9.54h2.09l-.67 16.122z" fill="#4D98A5"/><path d="M228.104 95.85l-.465 5.43-1.56-.26c.03-5.257-.19-10.468.36-15.617 1.41-.6 2.76-.394 4.08-.152 1.07.2 1.91.79 2.03 2.02.16 1.7.44 3.4.42 5.09-.01.88-.53 1.76-.91 2.87.82 1.68 1.16 3.87.82 6.16h-2.03c0-1.29.01-2.48-.01-3.66-.03-2.13-.74-2.61-2.77-1.87zm-.14-8.964v6.84c2.126.258 2.35.225 3.384-.49 0-1.433.05-2.91-.015-4.385-.058-1.32-.715-1.9-2.065-1.96-.386-.02-.775 0-1.303 0zm65.543 14.5h-2.15c0-1.3.013-2.485-.003-3.672-.028-2.136-.743-2.608-2.772-1.86-.15 1.764-.3 3.527-.46 5.428l-1.56-.264c.024-5.26-.174-10.47.342-15.613 1.433-.603 2.788-.398 4.11-.154 1.074.2 1.91.79 2.027 2.03.16 1.7.44 3.4.43 5.09 0 .88-.53 1.76-.89 2.84 1.08 1.69.95 3.87.94 6.18zm-5.086-7.547c1.3-.09 2.44.33 3.41-.6 0-1.49.06-2.97-.01-4.44-.06-1.28-.69-1.84-1.98-1.92-.42-.03-.84-.01-1.4-.01v6.95z" fill="#4E98A5"/><path d="M221.026 47.07c-2.454.15-4.484-1.84-4.527-4.383-.04-2.304 1.73-4.675 4.61-4.58 2.62.085 4.48 1.91 4.48 4.54 0 2.61-1.88 4.425-4.57 4.422z" fill="#DC7B3C"/><path d="M224.443 93.02c0 1.754-.114 3.517.026 5.258.21 2.65-2.9 3.93-4.92 2.81-1.19-.658-1.53-1.76-1.86-2.896-.14-.452-.21-.938-.21-1.41-.03-2.625-.15-5.258-.01-7.874.09-1.54 1.02-2.688 2.59-3.243 1.57-.557 2.86-.004 3.63 1.232.57.915.72 2.143.88 3.257.14.936.03 1.91.03 2.867h-.18zm-1.35-.392c-.048-.004-.094-.01-.14-.013 0-1.038.042-2.077-.012-3.112-.06-1.258-.77-1.945-1.8-1.922-1.11.03-1.45.84-1.5 1.67-.15 2.54-.21 5.09-.22 7.63 0 .65.25 1.34.54 1.93.35.73 1.06.9 1.84.8.73-.09.73-.68.78-1.16.21-1.93.36-3.87.53-5.81z" fill="#4E98A5"/><path d="M273.242 88.883l-2.007.41c-.158-.296-.245-.392-.262-.5-.136-.89-.666-1.427-1.51-1.647-.678-.177-1.17.187-1.512.716-.49.766-.79 1.62-.18 2.434.55.725 1.22 1.372 1.87 2.014.88.87 1.88 1.63 2.68 2.564 1.4 1.635 1.32 3.073.55 4.896-.54 1.286-2.76 2.098-4.26 1.715-1.66-.426-2.73-1.904-2.6-3.793l1.64-.302c.19.465.3.797.45 1.12.42.97 1.19 1.346 2.12 1.052.86-.27 1.38-1.296 1.13-2.21-.4-1.446-1.36-2.497-2.44-3.47-.68-.616-1.38-1.208-2.02-1.865-1.2-1.237-1.4-2.737-.9-4.32.46-1.437 1.6-2.137 3-2.446 1.25-.27 2.84.48 3.45 1.64.3.56.5 1.16.86 2z" fill="#4D98A5"/><path d="M294.854 85.245l5.958-.315.306 1.976c-1.346.493-2.76.04-4.228.303l-.327 5.6h3.34l.413 1.66-3.688.4.336 4.47h4.225v2.13h-5.12c-.62 0-.86-.39-.87-.92-.12-5.06-.23-10.12-.35-15.34zm-60.48-.022c2.007-.09 3.716-.176 5.425-.237.18-.006.36.134.59.224l.24 1.82h-4.23l-.34 5.762h3.36l.37 1.697-3.68.39.34 4.4h4.2c.04.77.08 1.41.12 2.2-1.89 0-3.63.03-5.37-.04-.25-.01-.68-.51-.68-.79-.16-5.09-.26-10.19-.38-15.44z" fill="#4E98A5"/><path d="M186.23 85.26c1.492-.104 2.873-.246 4.258-.285 1.726-.05 1.83.102 1.64 2.07-.653.027-1.34.064-2.03.078-.673.014-1.346.003-2.1.003-.1 1.913-.2 3.754-.303 5.706h3.455l.32 1.655-3.61.396c.07 1.466.143 2.907.22 4.456h4.292c.042.74.08 1.37.12 2.09h-6.084c-.194-5.43-.418-10.77-.177-16.18z" fill="#4D98A5"/><path d="M194.273 101.25c.114-.364.214-.733.345-1.09.407-1.116.716-2.285 1.265-3.328.854-1.625.686-3.143.075-4.79-.782-2.107-1.38-4.28-2.054-6.41 1.022-.63 1.3-.54 1.668.517.63 1.82 1.247 3.64 2.086 5.48l2.176-6.15h1.77c-.085.32-.133.57-.216.8-.884 2.54-1.793 5.07-2.64 7.63-.132.4-.09.92.047 1.33.61 1.8 1.288 3.57 1.933 5.36.077.21.1.45.183.83l-1.6.09-1.74-4.49-1.24 3.31c-.45 1.21-.61 1.29-2.05.88z" fill="#4E98A5"/><path d="M276.318 95.486v6.08l-1.588-.396.34-15.29c2.314-.912 5.25-.588 5.85 1.083.2.554.407 1.135.44 1.713.088 1.508.222 3.035.075 4.53-.18 1.828-1.526 2.68-3.403 2.43-.466-.062-.936-.084-1.714-.15zm.197-1.4c.42 0 .735-.03 1.043.004 1.493.157 1.954-.26 2.253-2.064.14-.812.04-1.664.03-2.498-.03-2.106-1.28-2.92-3.31-2.133v6.69zm-71.73 1.384v6.1c-.654-.168-1.067-.273-1.576-.402l.34-15.304c2.25-.875 5.24-.56 5.79 1.015.21.59.46 1.2.49 1.81.09 1.5.21 3.03.06 4.53-.18 1.78-1.5 2.64-3.3 2.43-.51-.06-1.01-.11-1.83-.19zm.252-8.334v6.95c.392 0 .708-.03 1.017.004 1.42.157 1.954-.194 2.235-2.08.14-.97.03-1.982.01-2.974-.03-1.152-.55-1.74-1.7-1.89-.47-.06-.95-.01-1.57-.01z" fill="#4D98A5"/><path d="M346.452 88.213l-1.593.62c-.17-.28-.33-.533-.46-.8-.55-1.106-1.65-1.27-2.33-.247-.4.604-.74 1.377-.76 2.086-.1 2.552-.08 5.11-.02 7.663.01.544.28 1.165.62 1.6.6.776 1.5.664 2.06-.138.2-.286.41-.567.63-.87.6.136 1.14.254 1.66.37-.19 1.384-1.27 2.594-2.6 2.952-1.03.27-2.81-.38-3.45-1.44-.44-.73-.84-1.61-.85-2.42-.04-2.63.07-5.26.22-7.88.04-.77.3-1.56.59-2.28.55-1.35 1.91-2.27 3.02-2.15 1.65.17 2.87 1.26 3.23 2.93z" fill="#4F99A6"/><path d="M352.73 84.947v1.603l-1.795.17c-.122 4.912-.243 9.797-.37 14.835l-1.718-.197V86.66h-2.192l-.09-1.713h6.166z" fill="#4D98A5"/><path d="M213.315 99.723l3.55.322c.04.398.077.734.112 1.07-.16.08-.26.17-.366.176-1.27.09-2.54.16-3.81.24-.76.05-1.1-.29-1.12-1.04-.07-3.63-.19-7.26-.22-10.9-.01-1.1.21-2.2.33-3.35h1.54v13.5zm41.305-14.227l-.29 15.695h-1.827c0-.54-.002-1.07 0-1.61.016-3.63.036-7.25.05-10.88 0-.64-.026-1.28-.034-1.92-.02-1.3.02-1.34 1.32-1.33.2.01.39.03.77.05zm30.24 0l-.29 15.693h-1.813c0-.58-.003-1.16 0-1.73.02-3.51.046-7.02.06-10.53.003-.72-.046-1.44-.057-2.16-.02-1.31.023-1.35 1.324-1.34.198 0 .397.02.776.05zm30.243.004l-.296 15.694h-1.824c0-.553-.003-1.087 0-1.62.02-3.59.043-7.18.058-10.77.01-.678-.03-1.357-.04-2.036-.02-1.287.04-1.337 1.34-1.322.2 0 .4.026.77.053z" fill="#4E98A5"/><path d="M248.39 93.633c-.013.683-.71 1.375-1.4 1.396-.735.02-1.485-.72-1.47-1.45.016-.69.71-1.38 1.403-1.4.734-.03 1.483.72 1.468 1.45zm56.88-.053c.01-.754.62-1.404 1.32-1.407.745-.004 1.367.706 1.33 1.516-.034.74-.684 1.37-1.378 1.34-.705-.04-1.28-.7-1.27-1.45z" fill="#62A4AF"/><path d="M356.916 92.927l-.16.14-.02-.296c.065.05.126.1.18.16z" fill="#DA5838"/><path d="M116.293 47.51c1.118 4.92.336 9.285-3.004 13.042-1.7 1.91-3.43 3.803-5.19 5.654-1.76 1.842-3.21 3.837-3.81 6.368-.22.928-.52 1.85-.9 2.726-1.04 2.42-.61 4.962-.7 7.46-.14 3.834-1.07 7.426-2.92 10.83-.81 1.477-1.92 2.56-3.17 3.508s-1.85 2.232-2.54 3.547c-.79 1.507-1.79 2.9-2.64 4.374-.31.53-.62 1.13-.67 1.72-.21 2.76-1.13 5.37-2.91 7.32-1.59 1.74-3.73 3.27-5.93 4.13-3.31 1.29-6.89 1.52-10.47.76-.85-.18-1.75-.14-2.62-.16-.85-.02-1.25-.32-1.38-1.25-.37-2.52-.71-5.08-2.66-7.02-.3-.3-.56-.71-.68-1.12-.83-2.67-1.58-5.36-2.45-8.02-.32-.97-.79-1.94-1.39-2.76-1.36-1.85-1.56-3.67-.59-5.79 1.21-2.64.71-5.5.67-8.29-.07-4.5-3.09-7.28-6.02-10.06-.73-.69-1.02-1.26-.68-2.16.06-.15.06-.33.14-.46 1.5-2.3.49-4.74.34-7.1-.09-1.4-2.31-2.8-3.71-2.71-1.4.09-2.67-.17-4.05-.64-1.83-.63-3.93-.75-5.76.46-.2.13-.41.25-.59.4-1.08.9-2.19 1.21-3.48.39-1.09-.69-2.32-.58-3.49-.29-4.32 1.09-7.32-.9-9.84-4.1-1.22-1.54-2.48-3.03-3.68-4.58-.25-.32-.41-.79-.41-1.19-.03-4.96-.02-9.92-.01-14.87 0-.32-.01-.67.12-.95.94-2.05 1.71-4.17 3.1-6.03 2.86-3.82 6.38-6.92 10.14-9.78.41-.31.84-.65 1.32-.82 3.59-1.25 6.87-3.15 10.21-4.92 1.37-.73 2.76-1.12 4.34-1.06 2.68.09 5.36.05 8.04.01.86-.01 1.54.27 2.16.83.96.87 2.01 1.58 3.36 1.68.84.06 1.42.55 1.78 1.26.69 1.37 1.81 2.18 3.18 2.75.88.36 1.7.89 2.6 1.22 1.47.53 2.28.24 2.96-.68.57-.78 1.39-1.49 2.25-1.91.68-.34 1.61-.27 2.43-.24 1.63.07 3.26.21 4.89.39.66.07 1.39.17 1.93.51 1.18.72 2.41 1.04 3.76.9.96-.1 1.63.29 2.01 1.16.39.87.85 1.73 1.1 2.65.31 1.15.95 2.07 1.67 2.99.93 1.19 1.84 2.42 2.62 3.71.44.73.59 1.63.85 2.45.18.56.29 1.17.54 1.7 1.37 2.93 3.23 5.5 5.74 7.58.95.79 2.01 1.51 2.75 2.47.89 1.15 1.6 2.47 2.18 3.8.66 1.56.88 1.78 2.45 1.09 1.98-.86 3.93-1.79 5.89-2.7.18-.08.37-.14.71-.28zM95.51 95.297l.308-.262.63-1.236.94-3.47c.167-.92.303-1.85.512-2.75.19-.83.462-1.64.698-2.46l.04-2.32c-.16-1.01-.308-2.01-.483-3.01-.297-1.7.51-3.16.966-4.69l1.82-2.84c.88-.14 1.14-1.09 1.51-1.94l1.48-2.17c.41-.32.84-.6 1.21-.95 1.04-1.01 2.11-2.01 3.05-3.1.47-.54.69-1.3 1.03-1.96l.49-.89.5-.98c.7-1.28 1.39-2.56 2.09-3.84.78-1.42.69-2.9.28-4.39-.19-.13-.43-.42-.58-.38-1.18.33-2.35.72-3.52 1.09l-.42.18-3.85 1.11-1.45-.35c-.05-.06-.22-.33-.46-.53-.23-.19-.53-.29-.8-.43l-.91-1.74c-.64-1.06-1.27-2.13-1.93-3.17-.15-.24-.4-.42-.61-.62-.23-.33-.45-.66-.69-.97-.99-1.3-2-2.58-3-3.87-.07-.35-.05-.74-.21-1.03-.79-1.34-1.63-2.65-2.46-3.97l-.22-.24.01.02c-.64-1.24-1.27-2.48-1.91-3.72l-2.15-4.21c-.01-.44.06-.89-.04-1.31-.29-1.25-.64-2.47-2.02-3.02-.84-.34-1.68-.71-2.48-1.13-1.35-.7-2.78-.5-4.19-.43-.05 0-.08.21-.12.32l-.15.12c-.58-.36-1.12-.9-1.86-.33l-.93.33c-1.28.58-2.59 1.12-3.85 1.76-1.12.57-2.26.92-3.52.82l-4.29-.77c-.42-.52-.97-.98-1.23-1.58-.93-2.16-2.94-2.83-4.84-3.66-.3-.32-.54-.77-.9-.92-.82-.33-1.69-.51-2.55-.75l-1.59-.27c-1.72-.14-3.44-.28-5.16-.43l-6.24 1.84-2.9.58-2.44.43-2 1.17L27.41 28c-.74.59-1.48 1.19-1.7 2.19-1.66 1.26-2.6 3.04-3.43 4.89-.122.278-.152.62-.143.93.08 2.75.18 5.497.28 8.24.2 1.13.33 2.29.64 3.39.2.71.68 1.343 1.034 2.01.09 1.453 1.18 2.227 2.1 3.11.43 1 1.38 1.27 2.27 1.624 1.45 1.48 3.1 2.61 5.14 3.1l1.5.54c1.29.68 2.57 1.51 4.09.51.69.7 1.53.53 2.36.4.06.75.52.35.85.3 1.13-.16 2.24-.405 3.37-.46 1.62-.08 3.25-.05 4.87-.01.8.025 1.48-.13 1.99-.78.31.18.65.315.93.53 1.21.933 2.55 1.114 4.02.892.73-.11 1.48-.045 2.22-.06l.49 2.52c-.28.56-.55 1.12-.83 1.68-.3.7-.71 1.377-.9 2.11-.42 1.644-.09 3.26.42 4.84l1.08 1.94c.09 1.59 1.19 2.637 2.06 3.806l1.06 2.44c.66 1.38.85 2.846.71 4.354-.07.75.07 1.386.72 1.843l-1.14 3.61c-.17.17-.48.34-.49.53-.04 1.03-.05 2.07 0 3.1.02.25.33.49.5.73l.71 3.29c.128 1.79.76 3.41 1.795 4.86.2.28.72.33 1.1.48l1.2 2.83c-.01.27-.09.57-.01.8.46 1.3.96 2.59 1.45 3.89-.18 1.16.83 1.79 1.187 2.71-.13.25-.417.54-.37.76.15.84.3 1.73.67 2.49.26.54.88.91 1.33 1.36l.71.28 3.133-.03 2.47.18c1.773.31 3.433-.24 4.91-1.05 1.183-.66 2.18-1.72 3.13-2.72.474-.51.753-1.26.95-1.96.324-1.14.46-2.33.766-3.48.35-1.33.82-2.64 1.23-3.96l.44-.42 2.35-3.39.79-1.27 2.16-3.32-.02.01z" fill="#D95938"/><path d="M70.837 111.786c-.356-.92-1.365-1.557-1.184-2.712l7.624-2.738-.707-2.388-8.364.433-1.203-2.83 8.884.35-1.133-3.59c-.335-.06-.565-.12-.797-.15-2.953-.46-5.91-.92-8.858-1.41-.35-.06-.67-.35-.99-.53l-.71-3.29 10.58 3c-.51-1.38-.88-2.51-1.34-3.61-.14-.32-.48-.68-.8-.79-2.81-1.01-5.64-1.98-8.46-2.95l1.14-3.61 2.73.99-1.16-6.86-3.01-.33-1.06-2.44 3.29 1.2 4.75-10-4.53-1.62c-1.21 1.48-2.32 2.88-3.47 4.26-.68.81-1.41 1.58-2.11 2.36l-1.07-1.95c.32-.39.62-.8.96-1.18 1.19-1.3 2.4-2.59 3.69-3.99-1.51-.64-2.84-1.21-4.18-1.77l.83-1.68 2.47 1.44 1.1-5.56-2.75-.72-1.31 2.32c-.74.02-1.49-.05-2.22.06-1.47.22-2.81.04-4.02-.89-.27-.21-.61-.35-.92-.53l-1.42-2.66c-2.58.9-4.95 1.71-7.3 2.56-.81.29-1.57.7-2.36 1.05-.83.13-1.66.3-2.35-.4-1.52 1-2.8.17-4.09-.51l3.34-2.94-4.06-3.79-3.2 2.02 2.42 4.17c-2.04-.5-3.7-1.63-5.14-3.1l-.91-2.42c-.56.32-.96.56-1.36.79-.93-.88-2.02-1.66-2.1-3.11.84-.22 1.68-.44 2.68-.71v-3.74l-4.36-.95c-.1-2.75-.2-5.49-.28-8.24-.01-.31.02-.66.15-.93.83-1.84 1.76-3.62 3.43-4.89l-.49 1.49 4.29 2.71 1.14-4.32-3.25-2.06 6.71-6v1.05l4.43 3.32.94-1.41c-.63-.67-1.24-1.25-1.76-1.88-.58-.71-1.1-1.47-1.64-2.21l2.45-.43 1.94 3.07L42 21.2l-.604-1.296 6.237-1.833 5.825 6.71c1.09-.81 1.156-1.64.663-2.71-.53-1.15-.89-2.38-1.32-3.58l1.6.27 1.46 3.82 2-2.14c1.91.83 3.91 1.5 4.85 3.67.26.59.82 1.06 1.23 1.58l-2.51 6.09.23.16 8.94-3.76-2.36-1.72c1.27.1 2.41-.26 3.53-.82 1.26-.63 2.57-1.17 3.85-1.75-.74.72-1.5 1.41-2.23 2.15-.26.27-.67.64-.64.92.16 1.35.45 2.68.74 4.22l4.39-3.72-1.33-3.9c.74-.56 1.28-.03 1.86.33l.21.29.14-.09-.19-.32c.04-.11.07-.32.12-.32 1.42-.07 2.84-.27 4.19.44.81.42 1.64.79 2.49 1.13 1.38.55 1.73 1.77 2.02 3.02.1.42.03.87.03 1.31L85.08 32c1.39.8 2.64 1.52 3.83 2.21.18-.1.268-.13.31-.184.13-.153.238-.32.35-.48l1.91 3.72-.86-.375-5.114 7.28 4.123 3.33c1.2-1.38 2.29-2.66 3.41-3.89.39-.43.88-.76 1.32-1.14l3 3.87c.24.32.46.65.69.97-.45 1.89 1.23 2.72 1.92 4.09.27-.14.45-.22.62-.31l.91 1.74-.95 1.03c1.64.92 2.66.98 3.66.27l3.85-1.11-3.14 2.52c.48.41.87.75 1.27 1.06 1.34 1.05 2.68 2.09 4.02 3.14v.62l-.49.98c-.98-.31-1.98-.59-2.95-.94-.57-.2-.95-.11-1.36.35-1.37 1.55-2.79 3.07-4.17 4.61-.71.79-1.4 1.59-2.15 2.44 1.13.51 2.01.52 2.92-.31.88-.8 1.91-1.43 2.87-2.13 1.44-1.04 2.89-2.08 4.33-3.12-.34.66-.56 1.41-1.03 1.95-.95 1.1-2.01 2.09-3.05 3.1-.37.35-.8.63-1.21.95-1.44-.04-2.01 1.15-2.92 1.84l.09.33h1.35c-.38.85-.63 1.8-1.51 1.94l-1.81 2.84-.49-3H96l.33 10.94 2.346-.24-.04 2.32c-1.033.04-2.073.04-3.102.14-.37.04-.922.26-1.04.55-.574 1.39-1.03 2.83-1.624 4.52h4.56l-.94 3.46H92.3l-.61 5.97.93.11-2.35 3.39v-1.76l-6.63-2.74c.33 1.01.48 1.72.8 2.35.205.41.583.87.993 1.03 1.44.57 2.927 1.03 4.396 1.53-.42 1.32-.88 2.62-1.24 3.96-.31 1.15-.44 2.34-.77 3.48-.2.69-.48 1.45-.95 1.96-.95 1-1.95 2.06-3.14 2.72-1.48.81-3.14 1.37-4.91 1.05l-.61-1.29-1.86 1.11-3.14.03-.08-.29 8.39-5.29c-.6-.56-1.12-.99-1.57-1.48-.81-.87-1.63-1.13-2.71-.43-.63.41-1.37.64-2.08.92-1.44.57-2.88 1.12-4.32 1.67zM79.19 53.05c.11-.367.165-.762.335-1.1.864-1.71 1.757-3.405 2.64-5.106.357-.69.71-1.382 1.136-2.207l-3.58-.838-2.8 10.31 2.29-1.08c-.23.35-.5.68-.7 1.05-.29.54-.54 1.1-.81 1.66l.28.16L89 49.25l-3.653-3.46c-.79.942-1.446 1.74-2.113 2.522-1.336 1.575-2.68 3.146-4.02 4.72zm-.612 16.874l-2.865 9.805 6.812 1.22 1.497-9.8-5.444-1.23zm-5.395 9.405l3.678-9.81-4.9-1.64-4.77 10.06 6.01 1.38zM41.826 42.47c1.03 1.443 1.954 2.793 2.95 4.086.237.306.71.576 1.09.6 2.342.14 4.69.206 7.145.3.37-1.1.73-2.18 1.12-3.368l-10.49-4.53-1.81 2.912zm32.86 12.9l3.31-12.77H73.22l-1.31 12.77h2.776zM61.64 42.722c.818 4.14 1.684 8.06 2.334 12.027.273 1.66 1.393 2.55 2.502 3.62l-1.31-17.78-3.526 2.13zM92.506 66.58L99.4 56.025l-1.973-4.416-6.807 13.66 1.886 1.3zm-1.893 16.382l3.987.297c.1-.18.175-.25.173-.31-.084-3.35-.16-6.7-.288-10.04-.01-.28-.312-.71-.56-.78-.856-.25-1.748-.38-2.77-.58-.184 3.88-.36 7.6-.542 11.4zM45.92 36.885l9.434 4.08 1.718-3.875-8.636-3.887c-.87 1.276-1.65 2.416-2.515 3.682zM88.757 82.04c.225-3.548.44-6.916.66-10.422l-3.526-.17-1.63 10.59h4.5zm-15.36-41.13h4.268c.26-3.207.51-6.317.774-9.586l-5.05 1.02v8.565zm-11.24 15.456l.21-.127c-.75-4.28-1.5-8.56-2.29-13.05-.935.78-1.695 1.35-2.377 2-.213.2-.32.64-.29.95.203 2.18.445 4.35.708 6.53.034.28.19.62.404.8 1.193.98 2.42 1.92 3.636 2.87zM41.7 55.78l.232.262 8.12-2.64-.95-3.985-5.733.322c-.58 2.07-1.12 4.05-1.67 6.04zm45.227-21.115l-4.624-1.63-2.222 9.077 2.91.7 3.95-8.147zM69.032 56.918c1.37-.84 1.988-1.896 1.967-3.398-.04-2.636.02-5.274.03-7.91v-3.507l-2.89-1.23.89 16.045zm15.51 37.248l-9.768-1.44c-.064.152-.134.236-.116.29.1.3.284.586.327.892.277 1.974 1.543 2.838 3.366 3.277 1.42.34 2.77.917 4.25 1.42l1.95-4.44zm4.99-42c-4.144 1.896-8.07 3.69-12.04 5.507l.083 1.537 11.392-2.574.564-4.47zm11.14 5.193l-6.975 10.16 1.525.96 8.885-10.02c-1.244-.4-2.29-.74-3.436-1.11zM53.455 27.03l-2.615 3.423 7.38 4.382 1.42-3.868c-2.066-1.317-4.066-2.59-6.184-3.938zM32.422 37.32c0 1.258-.036 2.37.023 3.48.016.308.238.704.49.885 1.418 1.013 2.873 1.972 4.372 2.99l2.38-2.62-4.556-5.03c-.91.102-1.77.195-2.7.296zm37.938 2.715V29.91l-4.47 1.88c.09.455.14.803.227 1.14.398 1.542.812 3.08 1.21 4.62.484 1.882.8 2.16 3.033 2.485zm-30.355-.73c1.12-.342 2.39-.375 3.08-1.024 1.09-1.02 1.787-2.46 2.785-3.91l-8.292-1.18 2.427 6.13zm9.858-10.675l-6.794-7.097-2.01 2.838 7.66 5.73 1.14-1.47zm26.49 39.025l.236-.15c-1.87-3.39-3.74-6.778-5.61-10.162l-1.64 1.4c.86 2.307 1.65 4.472 2.5 6.614.14.358.49.738.84.89 1.2.522 2.44.947 3.67 1.408zM50.14 49.16l1.06 4.37 5.47-1.153c-.35-2.11-.683-4.14-1.018-6.17-.086-.01-.172-.023-.258-.034l-1.148 2.725-4.106.262zm-7.67-.98l-3.192-3.24c-1.084 1.422-2.16 2.834-3.28 4.3l3.88 3.096 2.592-4.157zm40.26 39.21c1.876 1.473 3.684 2.776 5.35 4.242 1.096.965 2.193.834 3.492.565V89.58c-1.895-.83-3.86-1.598-5.734-2.544-1.126-.57-2.02-.378-3.108.354zM47.435 31.336l-7.19-4.328c-.656 1.283-1.23 2.406-1.882 3.675l8.36 2.273c.246-.556.447-1.015.712-1.62zm27.29 56.756c-.954-2.353-1.81-4.483-2.69-6.602-.08-.192-.315-.397-.515-.448-.91-.234-1.835-.415-2.984-.665l1.89 6.598 4.3 1.117zM22.615 39.86l4.45 2.098 1.1-4.7-3.542-2.61-2.01 5.212zm58.363 28.23l.188-.208-6.69-11.29-1.152.726c1.635 3.263 3.21 6.435 4.827 9.585.16.312.55.587.89.71.62.228 1.29.326 1.94.477zm14.47-14.72c.337-1.627.654-3.164 1.007-4.88-2.01.557-3.86 1.068-5.693 1.574v3.993c1.58-.23 3.055-.446 4.687-.686zM52.635 26.218c-2.03-2.323-3.992-4.572-5.985-6.855l-2.09.83c2.45 2.474 4.87 4.917 7.34 7.413l.734-1.388zm-20.23 9.767c2.83.17 4.908-1.634 4.32-3.8-1.747-.347-3.55-.703-5.325-1.054-.67 1.96.293 3.35 1.004 4.86zM88.207 59.66l-.266-.326-9.61 1.486c1.81.97 3.6 1.72 5.42 2.412.28.107.78.085.97-.095 1.2-1.125 2.34-2.31 3.5-3.477zm-25.84-34.744l-3.855-2.852c-.912.81-1.78 1.578-2.744 2.433 2.054 1.26 3.924 2.405 5.946 3.643l.652-3.224zM76.44 98.338l-.215.248c.273.697.525 1.405.83 2.088.155.35.33.84.622.958 1.776.724 3.588 1.36 5.55 2.084l-.534-3.233-6.254-2.145zM37.794 27.635c-1.88-.876-3.658-1.703-5.587-2.6l-.236 3.474c1.7.65 3.38 1.29 5.15 1.97l.68-2.85zm43.228 36.022l-.257.21c.718 1.36 1.603 2.657 2.113 4.09.725 2.033 2.407 1.908 4.22 2.356-.962-1.928-1.783-3.598-2.638-5.25-.113-.22-.38-.42-.617-.503-.93-.328-1.88-.606-2.82-.903zm-16.6-24.572c-.48-2.074-.955-4.14-1.5-6.504-.868.93-1.555 1.63-2.208 2.37-.138.16-.253.46-.2.64.492 1.66 1.022 3.3 1.564 5.03l2.344-1.52zm5.225 26.313c-.652-1.69-1.256-3.076-1.72-4.508-.347-1.077-1.04-1.387-2.19-1.343l-.534 4.458 4.444 1.393zm5.41 16.52l2.137 5.793 2.425-1.83-1.57-3.73-3-.22zm11.067 13.954l-1.272 1.777 5.814 2.28.347-2.88c-1.707-.41-3.276-.79-4.89-1.18zM80.47 31.11l2.796.634 2.597-3.81-4.144-.397-1.25 3.572zM30.298 45.647l4.843 2.945 1.18-2.546-4.16-2.174-1.86 1.775zm23.245 9.604l2.28 3.52 3.49-2.98-1.965-1.53-3.805 1zm32.764 37.89c.04-.1.08-.21.118-.31l-5.075-5.32-1.223 1.13c1.09 1.42 2.09 2.74 3.103 4.04.087.12.262.21.405.22.89.1 1.782.17 2.673.25zm5.768-4.46l.648-3.34h-6.426l-.092.25 5.87 3.09zm.48-18.24c-.86-2.93-2.474-4.27-4.897-4.09 1.01 3.35 2.064 4.23 4.897 4.1zM33.63 50.15l-4.22-2.294v5.08l4.22-2.79zm51.07 53c-.56 2.63-.115 3.61 1.984 4.458l2.106-2.33-4.09-2.13zm1.896 7.1l-5.343 3.733c.385.54.745 1.05 1.152 1.62 1.965-1.05 3.225-2.675 4.4-4.374.11-.16-.105-.54-.21-.98zm-3.57-4.814l-5.345-2.39-.16.16 2.73 4.514 2.78-2.29zm-5.3-16.05l-2.78.21 1.594 2.62 3.576.21c.026-.094.052-.19.08-.285l-2.47-2.75zm-20.108-46.1c.08.04.158.09.238.13.893-.68 1.786-1.36 2.742-2.085l-1.827-3.27-.31.06-.84 5.17zm30.96 17.55l-2.053 2.44 2.36 1.45 1.508-2.835-1.816-1.05zm1.82-4.52l-.96 2.77 2.486.557 1.025-2.9-2.55-.426zm-3.426 38.32l4.355.846c.03-.695.055-1.26.08-1.796-2.465-.802-3.134-.672-4.436.95zm-3.268 12.13l-2.09 2.37 1.742 1.608 1.815-1.587-1.46-2.398zm-1.814-21.2l2.67-1.81-3.95-1.214 1.28 3.022zM37.755 38.13l.685-.876-1.178-2.414-1.406 1.605 1.9 1.686zM96.77 69.378l-2.74-.33c.114.622.187 1.02.26 1.432l2.718.32-.238-1.423zm-21.41-13.04c.51.303.982.585 1.572.938l.35-2.394c-1.414-.142-1.455-.112-1.92 1.456zM98.1 68.98l.325 1.494h1.3l.385-1.25c-.705-.085-1.244-.15-2.01-.244z" fill="#F5EDD3"/><path d="M59.998 72.487c.705-.786 1.433-1.554 2.11-2.364 1.15-1.375 2.268-2.777 3.472-4.257l4.53 1.625-4.753 10c-1.16-.42-2.228-.81-3.296-1.19-.87-1.16-1.97-2.21-2.06-3.8zm34.322-30.06c-.442.376-.932.71-1.32 1.136-1.123 1.236-2.206 2.51-3.412 3.89-1.378-1.11-2.69-2.17-4.124-3.33 1.736-2.47 3.416-4.864 5.115-7.283l.85.374-.01-.02.22.24c.82 1.318 1.66 2.627 2.46 3.966.16.286.14.682.21 1.027zm-23.483 69.36c1.438-.558 2.88-1.106 4.314-1.676.71-.28 1.45-.51 2.08-.92 1.09-.7 1.91-.43 2.71.44.45.49.97.92 1.57 1.48l-8.39 5.29-.63.01c-.45-.44-1.07-.82-1.33-1.36-.37-.76-.51-1.65-.67-2.49-.04-.22.24-.5.38-.76z" fill="#DD7D3E"/><path d="M64.11 96.2c.33.183.64.473.99.532 2.95.495 5.904.947 8.858 1.415.232.037.462.09.797.156.35 1.113.706 2.236 1.133 3.59l-8.884-.348c-.375-.156-.9-.206-1.1-.486-1.033-1.45-1.668-3.07-1.794-4.86zm-.708-7.655c2.82.978 5.647 1.94 8.455 2.955.325.118.66.472.798.797.46 1.094.833 2.226 1.337 3.61L63.406 92.91c-.174-.244-.485-.48-.5-.73-.056-1.034-.048-2.074 0-3.108.01-.182.323-.352.496-.527z" fill="#DD7E3F"/><path d="M68.206 104.38l8.364-.433.707 2.388-7.624 2.738c-.49-1.296-.992-2.587-1.454-3.892-.09-.23 0-.53 0-.8z" fill="#DD7E40"/><path d="M109.192 62.17c-1.444 1.04-2.89 2.075-4.332 3.118-.968.7-1.995 1.337-2.874 2.135-.91.826-1.796.814-2.924.31.746-.85 1.434-1.656 2.144-2.442 1.388-1.53 2.804-3.05 4.17-4.6.41-.46.792-.56 1.36-.35.97.35 1.96.64 2.944.95l-.488.89z" fill="#DD7F41"/><path d="M68.212 26.434c.746.544 1.49 1.09 2.365 1.727l-8.935 3.77-.228-.16 2.508-6.1 4.29.77z" fill="#DD7F40"/><path d="M98.64 82.81l-2.347.242-.325-10.934h2.666l.486 2.993c-.457 1.54-1.263 3-.966 4.69.177 1 .325 2.01.485 3.01z" fill="#DE8143"/><path d="M33.555 57.544l-2.426-4.172 3.2-2.017c1.31 1.22 2.61 2.435 4.06 3.786l-3.35 2.95-1.5-.54z" fill="#DD7E3F"/><path d="M76.518 23.515l1.328 3.9-4.393 3.72c-.283-1.535-.576-2.868-.74-4.218-.034-.28.378-.652.645-.92.726-.732 1.484-1.432 2.23-2.143l.93-.34z" fill="#DD7F41"/><path d="M97.387 90.335h-4.56c.595-1.694 1.05-3.13 1.626-4.518.118-.285.668-.507 1.04-.546 1.03-.1 2.07-.1 3.105-.14-.236.82-.507 1.63-.698 2.46-.21.91-.345 1.84-.513 2.75z" fill="#DD7F40"/><path d="M52.8 18.49c.433 1.197.79 2.43 1.324 3.58.493 1.063.428 1.893-.664 2.71l-5.825-6.71 5.164.42z" fill="#DD7E40"/><path d="M41.5 58.987c.786-.354 1.553-.76 2.36-1.053 2.35-.85 4.717-1.655 7.296-2.553l1.425 2.66c-.51.65-1.19.8-1.99.78-1.62-.04-3.25-.07-4.87.01-1.12.06-2.24.3-3.36.46-.34.05-.79.45-.85-.29z" fill="#DD7E3F"/><path d="M27.373 28.062l3.244 2.057-1.14 4.32-4.293-2.71.487-1.48c.23-1 .96-1.6 1.71-2.19z" fill="#DD7F40"/><path d="M59.404 63.597l4.174 1.775c-1.292 1.393-2.5 2.685-3.696 3.99-.343.376-.645.79-.965 1.184-.508-1.583-.835-3.198-.415-4.842.186-.732.594-1.406.902-2.107z" fill="#DD7E3F"/><path d="M63.114 78.733l3.005.33 1.15 6.86-2.74-.99c-.65-.458-.79-1.092-.72-1.844.14-1.51-.05-2.98-.72-4.36zM22.37 44.313l4.362.947V49c-.998.262-1.84.484-2.68.707-.356-.667-.834-1.3-1.037-2.01-.314-1.1-.44-2.254-.646-3.385z" fill="#DD7F40"/><path d="M59.745 59.397l1.308-2.32c.888.23 1.782.463 2.75.716l-1.1 5.56-2.47-1.434-.488-2.53z" fill="#DD7F41"/><path d="M89.785 103.675c-1.47-.5-2.955-.955-4.395-1.53-.41-.162-.787-.616-.994-1.03-.315-.63-.467-1.342-.796-2.35l6.63 2.737v1.76l-.445.413z" fill="#DE8244"/><path d="M110.18 59.69c-1.344-1.044-2.69-2.084-4.027-3.134-.403-.316-.787-.658-1.268-1.06l3.145-2.518.42-.18c.575 2.296 1.152 4.594 1.73 6.892z" fill="#DE8143"/><path d="M110.18 59.69c-.578-2.298-1.154-4.596-1.73-6.893 1.17-.372 2.337-.762 3.52-1.09.147-.042.384.24.58.372l-2.16.92c.346 1.03.583 1.91.958 2.74.143.31.604.48.92.72l-2.09 3.83v-.62z" fill="#F4E9CE"/><path d="M92.58 99.872l-.93-.11c.21-2.047.415-4.03.615-5.964h4.184c-.21.412-.42.824-.64 1.236l-.31.262.01-.013c-1.95.932-2.5 1.77-2.16 3.32l-.79 1.27zm-56.527-78.96c.543.743 1.055 1.51 1.638 2.22.53.64 1.13 1.212 1.77 1.886l-.94 1.41-4.42-3.32V22.06l1.97-1.147z" fill="#DE8143"/><path d="M89.53 33.496c-.115.16-.224.326-.35.478-.045.056-.13.08-.31.184l-3.828-2.208 2.33-2.664c.72 1.403 1.44 2.807 2.158 4.21z" fill="#DD7F41"/><path d="M112.268 56.47c-.316-.236-.777-.407-.92-.72-.374-.828-.61-1.717-.958-2.745l2.16-.927c.408 1.496.497 2.972-.282 4.392z" fill="#DD8042"/><path d="M41.396 19.903l.606 1.296-1.56 2.35-1.943-3.07 2.89-.58z" fill="#DE8143"/><path d="M57.846 20.432L55.85 22.57c-.54-1.413-.996-2.614-1.454-3.814.853.242 1.732.42 2.548.754.365.148.605.605.902.922z" fill="#DD7F40"/><path d="M104.177 54.092c-.995.706-2.024.646-3.656-.27l.95-1.03c.27.138.57.24.8.426.24.193.42.468.47.525l1.45.35z" fill="#DF8549"/><path d="M93.37 98.6c-.336-1.547.21-2.386 2.158-3.318l-2.16 3.32z" fill="#F4E9CE"/><path d="M100.553 51.048l-.622.306c-.69-1.366-2.37-2.192-1.92-4.09.21.203.46.375.61.613.66 1.047 1.3 2.113 1.94 3.17zm1.892 19.29h-1.357l-.09-.323c.917-.696 1.486-1.887 2.922-1.845l-1.475 2.167zM26.153 52.815l1.36-.792c.316.844.61 1.63.907 2.418-.892-.35-1.84-.62-2.267-1.62zm50.163 63.844l1.86-1.11.61 1.29-2.47-.18zm-3.848-.26l.637-.01.075.29-.712-.28z" fill="#DF8549"/><path d="M91.648 37.434l-.22-.24.22.24z" fill="#F5EDD3"/><path d="M95.51 95.296l.308-.262-.308.262z" fill="#F4E9CE"/><path d="M78.578 69.924l5.444 1.227-1.497 9.81c-2.276-.41-4.467-.8-6.812-1.22l2.865-9.8zm-5.395 9.406l-6.005-1.388 4.777-10.058 4.906 1.64c-1.22 3.278-2.42 6.468-3.67 9.805zM41.826 42.477l1.81-2.912 10.495 4.53-1.12 3.37c-2.45-.096-4.8-.162-7.14-.303-.38-.023-.85-.293-1.09-.6-.99-1.292-1.92-2.643-2.95-4.085z" fill="#DD7E3F"/><path d="M74.687 55.377H71.91c.437-4.268.864-8.437 1.31-12.77h4.775l-3.308 12.77z" fill="#DD7F40"/><path d="M61.64 42.726c1.123-.68 2.202-1.33 3.526-2.132l1.31 17.777c-1.11-1.06-2.23-1.96-2.502-3.62-.65-3.96-1.516-7.88-2.334-12.02z" fill="#DD7F41"/><path d="M92.506 66.58l-1.887-1.306 6.8-13.666 1.97 4.416c-2.3 3.524-4.57 6.988-6.9 10.557zm-1.893 16.382l.543-11.407c1.02.202 1.913.328 2.768.58.25.074.55.5.56.777.128 3.345.205 6.692.29 10.04 0 .065-.074.133-.174.307-1.234-.1-2.52-.19-3.987-.3z" fill="#DD7F40"/><path d="M45.92 36.885l2.517-3.682 8.636 3.887c-.59 1.328-1.128 2.543-1.718 3.875l-9.434-4.08zM88.756 82.04H84.26l1.63-10.59 3.527.168-.66 10.42z" fill="#DD7E40"/><path d="M73.396 40.91v-8.567l5.042-1.02-.774 9.586h-4.268z" fill="#DD7F40"/><path d="M62.158 56.367c-1.216-.955-2.443-1.895-3.636-2.877-.214-.176-.37-.518-.404-.802-.263-2.174-.505-4.35-.71-6.53-.028-.314.08-.75.292-.956.68-.656 1.442-1.23 2.38-2.007l2.288 13.045-.21.127z" fill="#DD7F41"/><path d="M41.7 55.78c.55-1.985 1.098-3.97 1.67-6.04l5.732-.322c.32 1.345.62 2.606.95 3.986-2.776.902-5.448 1.77-8.12 2.64l-.23-.263zm45.227-21.115l-3.943 8.146-2.903-.69 2.23-9.07 4.63 1.63zM79.19 53.05c1.34-1.572 2.684-3.144 4.02-4.72.668-.785 1.325-1.58 2.116-2.523l3.653 3.457c-3.77 2.273-7.4 4.46-11.02 6.65l-.28-.165c.27-.56.52-1.13.82-1.67.2-.37.46-.7.7-1.05l-.02.01z" fill="#DD7F40"/><path d="M69.032 56.918l-.888-16.045 2.89 1.23c0 1.205.006 2.355 0 3.505-.014 2.637-.07 5.275-.035 7.91.02 1.504-.6 2.56-1.97 3.4z" fill="#DE8143"/><path d="M84.54 94.166l-1.945 4.44c-1.475-.503-2.83-1.08-4.244-1.42-1.82-.438-3.09-1.302-3.36-3.277-.04-.31-.22-.6-.32-.9-.02-.06.05-.14.12-.29 3.19.47 6.39.94 9.77 1.44z" fill="#DD7F40"/><path d="M89.53 52.167l-.564 4.47c-3.767.85-7.51 1.695-11.392 2.573l-.083-1.537c3.98-1.815 7.9-3.61 12.04-5.506z" fill="#DD7F41"/><path d="M100.67 57.36l3.438 1.108-8.885 10.02-1.525-.96 6.973-10.17z" fill="#DD7F40"/><path d="M53.456 27.033l6.184 3.936-1.42 3.86-7.38-4.38 2.616-3.42zM32.422 37.32l2.71-.294 4.557 5.028-2.39 2.62c-1.5-1.017-2.96-1.976-4.37-2.99-.26-.18-.48-.576-.49-.884-.06-1.108-.03-2.222-.03-3.48zm37.938 2.715c-2.232-.326-2.55-.602-3.034-2.484-.397-1.54-.81-3.07-1.21-4.62-.086-.33-.136-.68-.225-1.14l4.47-1.88v10.13z" fill="#DD7E40"/><path d="M40.005 39.305c-.848-2.14-1.6-4.044-2.427-6.128l8.292 1.184c-.997 1.46-1.695 2.9-2.784 3.92-.69.65-1.962.69-3.08 1.03z" fill="#DD7F41"/><path d="M49.863 28.63c-.276.354-.663.85-1.144 1.47l-7.66-5.728c.69-.985 1.33-1.88 2.01-2.838l6.79 7.096zm26.49 39.025c-1.227-.462-2.47-.887-3.67-1.408-.35-.152-.7-.532-.842-.89-.84-2.14-1.63-4.307-2.5-6.614l1.64-1.4c1.87 3.385 3.74 6.773 5.61 10.162l-.23.15zM50.14 49.16l4.107-.262 1.148-2.725c.086.01.172.023.258.034l1.017 6.17-5.47 1.154-1.06-4.37zm29.065 3.877l-2.285 1.08L79.722 43.8l3.58.838-1.137 2.207c-.882 1.7-1.776 3.396-2.64 5.107-.17.337-.225.732-.333 1.1l.013-.015z" fill="#DD8042"/><path d="M42.47 48.18l-2.592 4.156-3.88-3.096 3.28-4.3 3.192 3.24z" fill="#DD7F41"/><path d="M82.73 87.392c1.088-.732 1.98-.923 3.108-.355 1.875.946 3.84 1.715 5.734 2.544v2.62c-1.3.27-2.396.4-3.493-.56-1.67-1.46-3.48-2.77-5.35-4.24z" fill="#DD8042"/><path d="M47.435 31.336l-.71 1.62-8.362-2.273 1.883-3.675 7.19 4.328z" fill="#DD7F41"/><path d="M74.725 88.092l-4.3-1.118-1.89-6.598c1.15.25 2.074.43 2.985.665.2.06.434.26.514.45.882 2.12 1.737 4.25 2.69 6.61z" fill="#DD8042"/><path d="M22.614 39.86l2.01-5.213 3.54 2.61c-.368 1.578-.717 3.068-1.1 4.7-1.567-.737-2.954-1.39-4.45-2.097z" fill="#DD7F40"/><path d="M80.978 68.09c-.65-.15-1.317-.25-1.94-.475-.34-.124-.726-.4-.887-.71-1.61-3.15-3.19-6.324-4.82-9.586.38-.24.69-.44 1.15-.73l6.69 11.29-.19.21z" fill="#DE8244"/><path d="M95.45 53.37l-4.687.688v-3.993l5.693-1.573c-.354 1.714-.67 3.252-1.007 4.88z" fill="#DD7F41"/><path d="M52.634 26.217c-.292.553-.53 1-.734 1.388l-7.34-7.414 2.09-.82 5.984 6.86z" fill="#DE8143"/><path d="M32.404 35.984c-.71-1.504-1.674-2.894-1.005-4.854l5.32 1.053c.59 2.168-1.49 3.972-4.32 3.8z" fill="#DD7F40"/><path d="M88.207 59.66c-1.16 1.166-2.3 2.352-3.5 3.477-.19.18-.688.202-.967.095-1.813-.693-3.604-1.442-5.413-2.412l9.614-1.486.27.326z" fill="#DE8143"/><path d="M62.366 24.916l-.652 3.224-5.946-3.643 2.744-2.433 3.854 2.852z" fill="#DD7F41"/><path d="M76.442 98.338l6.254 2.145.534 3.233c-1.96-.724-3.774-1.36-5.55-2.084-.293-.12-.468-.607-.624-.958-.304-.684-.556-1.39-.83-2.088l.216-.248z" fill="#DE8143"/><path d="M37.794 27.635l-.682 2.85-5.14-1.976c.078-1.18.15-2.22.235-3.48l5.587 2.6z" fill="#DD7F41"/><path d="M81.022 63.657c.942.297 1.89.575 2.82.903.24.084.504.284.617.503.85 1.652 1.67 3.323 2.63 5.25-1.82-.448-3.5-.323-4.22-2.357-.51-1.432-1.4-2.73-2.12-4.088l.26-.21z" fill="#DE8143"/><path d="M64.422 39.085l-2.344 1.524c-.543-1.73-1.073-3.37-1.563-5.03-.054-.18.06-.48.2-.64.65-.74 1.34-1.45 2.206-2.37l1.51 6.5z" fill="#DD8042"/><path d="M69.647 65.398l-4.443-1.393.535-4.458c1.14-.044 1.84.266 2.19 1.343.46 1.432 1.06 2.82 1.71 4.508z" fill="#DE8244"/><path d="M75.058 81.92l3 .22 1.56 3.734-2.424 1.837-2.136-5.79zm11.066 13.952c1.612.39 3.18.77 4.89 1.18l-.348 2.88-5.814-2.283 1.272-1.78zM80.47 31.11l1.25-3.572 4.143.396-2.597 3.81-2.796-.635zM30.298 45.648l1.858-1.774c1.37.716 2.702 1.41 4.162 2.174l-1.177 2.546-4.84-2.946z" fill="#DE8143"/><path d="M53.543 55.252c1.38-.363 2.553-.67 3.804-1l1.965 1.537-3.49 2.97-2.28-3.52z" fill="#DD8042"/><path d="M86.307 93.137c-.89-.08-1.783-.15-2.672-.246-.144-.01-.318-.1-.406-.22-1.02-1.3-2.02-2.61-3.11-4.03l1.22-1.12 5.07 5.32-.12.32z" fill="#DE8244"/><path d="M92.075 88.672l-5.87-3.09.092-.252h6.426c-.21 1.074-.41 2.113-.648 3.342z" fill="#DF8549"/><path d="M92.555 70.433c-2.833.133-3.886-.747-4.897-4.095 2.422-.184 4.035 1.165 4.897 4.095z" fill="#DE8244"/><path d="M33.63 50.143c-1.522 1.007-2.79 1.845-4.22 2.793v-5.088l4.22 2.295z" fill="#DF8549"/><path d="M84.7 103.14l4.09 2.13-2.106 2.33c-2.1-.85-2.543-1.827-1.985-4.46z" fill="#DD8042"/><path d="M86.596 110.24c.104.445.318.824.21.98-1.175 1.7-2.436 3.327-4.4 4.375-.408-.573-.77-1.08-1.153-1.62l5.343-3.734z" fill="#DE8143"/><path d="M83.025 105.427l-2.782 2.29-2.73-4.512.167-.17c1.72.77 3.438 1.54 5.345 2.392zm-5.3-16.047c.84.936 1.654 1.846 2.47 2.757-.026.095-.052.19-.08.286l-3.575-.21-1.593-2.62 2.778-.213z" fill="#DE8244"/><path d="M57.62 43.277c.28-1.722.56-3.445.843-5.167l.31-.053 1.827 3.268-2.742 2.086-.24-.13z" fill="#DF8549"/><path d="M88.58 60.832l1.814 1.054-1.51 2.835-2.358-1.45 2.053-2.43zm1.82-4.522l2.55.427-1.024 2.9c-.81-.183-1.585-.356-2.486-.558l.96-2.77z" fill="#DE8244"/><path d="M86.974 94.63c1.302-1.624 1.97-1.754 4.435-.95-.03.535-.05 1.102-.08 1.794-1.51-.29-2.85-.552-4.36-.844z" fill="#DF8549"/><path d="M83.706 106.756c.534.87.96 1.563 1.468 2.394l-1.815 1.586-1.75-1.607 2.09-2.38z" fill="#DE8244"/><path d="M81.89 85.56l-1.28-3.022 3.95 1.213c-.993.68-1.748 1.19-2.67 1.81zM37.755 38.13l-1.9-1.685 1.406-1.605 1.18 2.414-.68.877zM96.77 69.377c.086.514.148.885.24 1.422-.966-.12-1.777-.21-2.718-.32l-.26-1.44c.98.12 1.786.21 2.738.33zm-21.41-13.04c.467-1.57.508-1.6 1.92-1.456l-.348 2.4-1.57-.94zM98.1 68.98l2.01.245-.384 1.25h-1.3L98.1 68.98z" fill="#DF8549"/><path d="M78.526 23.72l.196.318c-.046.03-.092.062-.138.094l-.21-.286c.052-.04.103-.082.152-.126z" fill="#D95938"/></svg>